<?xml version="1.0" encoding="UTF-8" standalone="no"?>
<!DOCTYPE svg PUBLIC "-//W3C//DTD SVG 1.1//EN"
 "http://www.w3.org/Graphics/SVG/1.1/DTD/svg11.dtd">
<!-- Generated by graphviz version 14.1.1 (20251213.1925)
 -->
<!-- Title: ds1307_output_init Pages: 1 -->
<svg width="279pt" height="406pt"
 viewBox="0.00 0.00 279.00 406.00" xmlns="http://www.w3.org/2000/svg" xmlns:xlink="http://www.w3.org/1999/xlink">
<g id="graph0" class="graph" transform="scale(1 1) rotate(0) translate(4 402)">
<title>ds1307_output_init</title>
<!-- Node1 -->
<g id="Node000001" class="node">
<title>Node1</title>
<g id="a_Node000001"><a xlink:title="output example init">
<polygon fill="#999999" stroke="#666666" points="97.75,-206 0,-206 0,-186 97.75,-186 97.75,-206"/>
<text xml:space="preserve" text-anchor="middle" x="48.88" y="-192.5" font-family="Helvetica,sans-Serif" font-size="10.00">ds1307_output_init</text>
</a>
</g>
</g>
<!-- Node2 -->
<g id="Node000002" class="node">
<title>Node2</title>
<g id="a_Node000002"><a xlink:href="group__ds1307__base__driver.html#gad291a33cb4a7910811ee708f917fdda6" target="_top" xlink:title="close the chip">
<polygon fill="white" stroke="#666666" points="240.5,-398 164.5,-398 164.5,-378 240.5,-378 240.5,-398"/>
<text xml:space="preserve" text-anchor="middle" x="202.5" y="-384.5" font-family="Helvetica,sans-Serif" font-size="10.00">ds1307_deinit</text>
</a>
</g>
</g>
<!-- Node1&#45;&gt;Node2 -->
<g id="edge1_Node000001_Node000002" class="edge">
<title>Node1&#45;&gt;Node2</title>
<g id="a_edge1_Node000001_Node000002"><a xlink:title=" ">
<path fill="none" stroke="#63b8ff" d="M51.82,-206.39C57.98,-236.43 79.98,-324.04 133.75,-369 139.48,-373.79 146.33,-377.37 153.44,-380.05"/>
<polygon fill="#63b8ff" stroke="#63b8ff" points="152.29,-383.36 162.88,-383.02 154.39,-376.68 152.29,-383.36"/>
</a>
</g>
</g>
<!-- Node3 -->
<g id="Node000003" class="node">
<title>Node3</title>
<g id="a_Node000003"><a xlink:href="group__ds1307__base__driver.html#ga7f461659052eab1f1a3af596ff0f4293" target="_top" xlink:title="initialize the chip">
<polygon fill="white" stroke="#666666" points="235.25,-360 169.75,-360 169.75,-340 235.25,-340 235.25,-360"/>
<text xml:space="preserve" text-anchor="middle" x="202.5" y="-346.5" font-family="Helvetica,sans-Serif" font-size="10.00">ds1307_init</text>
</a>
</g>
</g>
<!-- Node1&#45;&gt;Node3 -->
<g id="edge2_Node000001_Node000003" class="edge">
<title>Node1&#45;&gt;Node3</title>
<g id="a_edge2_Node000001_Node000003"><a xlink:title=" ">
<path fill="none" stroke="#63b8ff" d="M53.28,-206.26C62.2,-231.54 88.74,-297.2 133.75,-331 140.96,-336.42 149.65,-340.29 158.36,-343.06"/>
<polygon fill="#63b8ff" stroke="#63b8ff" points="157.27,-346.39 167.84,-345.61 159.09,-339.63 157.27,-346.39"/>
</a>
</g>
</g>
<!-- Node4 -->
<g id="Node000004" class="node">
<title>Node4</title>
<g id="a_Node000004"><a xlink:href="group__ds1307__interface__driver.html#ga00576ca438b6afb68e56ce109046326f" target="_top" xlink:title="interface print format data">
<polygon fill="white" stroke="#666666" points="263.38,-322 141.62,-322 141.62,-290 263.38,-290 263.38,-322"/>
<text xml:space="preserve" text-anchor="start" x="149.62" y="-308.5" font-family="Helvetica,sans-Serif" font-size="10.00">ds1307_interface_debug</text>
<text xml:space="preserve" text-anchor="middle" x="202.5" y="-296.5" font-family="Helvetica,sans-Serif" font-size="10.00">_print</text>
</a>
</g>
</g>
<!-- Node1&#45;&gt;Node4 -->
<g id="edge3_Node000001_Node000004" class="edge">
<title>Node1&#45;&gt;Node4</title>
<g id="a_edge3_Node000001_Node000004"><a xlink:title=" ">
<path fill="none" stroke="#63b8ff" d="M57.55,-206.33C71.11,-223.94 100.99,-259.88 133.75,-281 135.61,-282.2 137.53,-283.35 139.5,-284.45"/>
<polygon fill="#63b8ff" stroke="#63b8ff" points="137.81,-287.52 148.31,-288.92 140.98,-281.28 137.81,-287.52"/>
</a>
</g>
</g>
<!-- Node5 -->
<g id="Node000005" class="node">
<title>Node5</title>
<g id="a_Node000005"><a xlink:href="group__ds1307__interface__driver.html#ga7bcc98b14e447efc9fd5e5f22381ea0a" target="_top" xlink:title="interface delay ms">
<polygon fill="white" stroke="#666666" points="271.25,-272 133.75,-272 133.75,-252 271.25,-252 271.25,-272"/>
<text xml:space="preserve" text-anchor="middle" x="202.5" y="-258.5" font-family="Helvetica,sans-Serif" font-size="10.00">ds1307_interface_delay_ms</text>
</a>
</g>
</g>
<!-- Node1&#45;&gt;Node5 -->
<g id="edge4_Node000001_Node000005" class="edge">
<title>Node1&#45;&gt;Node5</title>
<g id="a_edge4_Node000001_Node000005"><a xlink:title=" ">
<path fill="none" stroke="#63b8ff" d="M65.69,-206.37C82.14,-216.79 108.92,-232.73 133.75,-243 138.13,-244.81 142.74,-246.51 147.41,-248.09"/>
<polygon fill="#63b8ff" stroke="#63b8ff" points="146.3,-251.41 156.89,-251.1 148.41,-244.74 146.3,-251.41"/>
</a>
</g>
</g>
<!-- Node6 -->
<g id="Node000006" class="node">
<title>Node6</title>
<g id="a_Node000006"><a xlink:href="group__ds1307__interface__driver.html#ga086b1fce9bf290a8580debc19b66ddb9" target="_top" xlink:title="interface iic bus deinit">
<polygon fill="white" stroke="#666666" points="255.12,-234 149.88,-234 149.88,-202 255.12,-202 255.12,-234"/>
<text xml:space="preserve" text-anchor="start" x="157.88" y="-220.5" font-family="Helvetica,sans-Serif" font-size="10.00">ds1307_interface_iic</text>
<text xml:space="preserve" text-anchor="middle" x="202.5" y="-208.5" font-family="Helvetica,sans-Serif" font-size="10.00">_deinit</text>
</a>
</g>
</g>
<!-- Node1&#45;&gt;Node6 -->
<g id="edge5_Node000001_Node000006" class="edge">
<title>Node1&#45;&gt;Node6</title>
<g id="a_edge5_Node000001_Node000006"><a xlink:title=" ">
<path fill="none" stroke="#63b8ff" d="M97.85,-202.96C110.73,-204.83 124.85,-206.88 138.42,-208.85"/>
<polygon fill="#63b8ff" stroke="#63b8ff" points="137.74,-212.29 148.14,-210.26 138.75,-205.36 137.74,-212.29"/>
</a>
</g>
</g>
<!-- Node7 -->
<g id="Node000007" class="node">
<title>Node7</title>
<g id="a_Node000007"><a xlink:href="group__ds1307__interface__driver.html#ga2cf948356f8f74dc4f86d813cb26aa6a" target="_top" xlink:title="interface iic bus init">
<polygon fill="white" stroke="#666666" points="264.12,-184 140.88,-184 140.88,-164 264.12,-164 264.12,-184"/>
<text xml:space="preserve" text-anchor="middle" x="202.5" y="-170.5" font-family="Helvetica,sans-Serif" font-size="10.00">ds1307_interface_iic_init</text>
</a>
</g>
</g>
<!-- Node1&#45;&gt;Node7 -->
<g id="edge6_Node000001_Node000007" class="edge">
<title>Node1&#45;&gt;Node7</title>
<g id="a_edge6_Node000001_Node000007"><a xlink:title=" ">
<path fill="none" stroke="#63b8ff" d="M97.85,-189.04C107.9,-187.58 118.7,-186.01 129.4,-184.46"/>
<polygon fill="#63b8ff" stroke="#63b8ff" points="129.59,-187.97 138.99,-183.07 128.59,-181.04 129.59,-187.97"/>
</a>
</g>
</g>
<!-- Node8 -->
<g id="Node000008" class="node">
<title>Node8</title>
<g id="a_Node000008"><a xlink:href="group__ds1307__interface__driver.html#ga243d95f52422b308db17e59837910d1f" target="_top" xlink:title="interface iic bus read">
<polygon fill="white" stroke="#666666" points="267.12,-146 137.88,-146 137.88,-126 267.12,-126 267.12,-146"/>
<text xml:space="preserve" text-anchor="middle" x="202.5" y="-132.5" font-family="Helvetica,sans-Serif" font-size="10.00">ds1307_interface_iic_read</text>
</a>
</g>
</g>
<!-- Node1&#45;&gt;Node8 -->
<g id="edge7_Node000001_Node000008" class="edge">
<title>Node1&#45;&gt;Node8</title>
<g id="a_edge7_Node000001_Node000008"><a xlink:title=" ">
<path fill="none" stroke="#63b8ff" d="M68.76,-185.54C85.48,-176.58 110.73,-163.77 133.75,-155 138.63,-153.14 143.77,-151.37 148.95,-149.72"/>
<polygon fill="#63b8ff" stroke="#63b8ff" points="149.56,-153.19 158.1,-146.92 147.52,-146.49 149.56,-153.19"/>
</a>
</g>
</g>
<!-- Node9 -->
<g id="Node000009" class="node">
<title>Node9</title>
<g id="a_Node000009"><a xlink:href="group__ds1307__interface__driver.html#ga519e61f3086db7a30d5a219d51d10855" target="_top" xlink:title="interface iic bus write">
<polygon fill="white" stroke="#666666" points="255.12,-108 149.88,-108 149.88,-76 255.12,-76 255.12,-108"/>
<text xml:space="preserve" text-anchor="start" x="157.88" y="-94.5" font-family="Helvetica,sans-Serif" font-size="10.00">ds1307_interface_iic</text>
<text xml:space="preserve" text-anchor="middle" x="202.5" y="-82.5" font-family="Helvetica,sans-Serif" font-size="10.00">_write</text>
</a>
</g>
</g>
<!-- Node1&#45;&gt;Node9 -->
<g id="edge8_Node000001_Node000009" class="edge">
<title>Node1&#45;&gt;Node9</title>
<g id="a_edge8_Node000001_Node000009"><a xlink:title=" ">
<path fill="none" stroke="#63b8ff" d="M58.39,-185.64C72.5,-169.06 102.29,-136.48 133.75,-117 135.75,-115.76 137.82,-114.57 139.94,-113.43"/>
<polygon fill="#63b8ff" stroke="#63b8ff" points="141.34,-116.64 148.78,-109.09 138.26,-110.35 141.34,-116.64"/>
</a>
</g>
</g>
<!-- Node10 -->
<g id="Node000010" class="node">
<title>Node10</title>
<g id="a_Node000010"><a xlink:href="group__ds1307__base__driver.html#ga7232e169dbeec32a1e3550205960fae4" target="_top" xlink:title="enable or disable the oscillator">
<polygon fill="white" stroke="#666666" points="257.75,-58 147.25,-58 147.25,-38 257.75,-38 257.75,-58"/>
<text xml:space="preserve" text-anchor="middle" x="202.5" y="-44.5" font-family="Helvetica,sans-Serif" font-size="10.00">ds1307_set_oscillator</text>
</a>
</g>
</g>
<!-- Node1&#45;&gt;Node10 -->
<g id="edge9_Node000001_Node000010" class="edge">
<title>Node1&#45;&gt;Node10</title>
<g id="a_edge9_Node000001_Node000010"><a xlink:title=" ">
<path fill="none" stroke="#63b8ff" d="M53.55,-185.83C62.92,-161.41 90.06,-99.12 133.75,-67 135.52,-65.7 137.38,-64.48 139.3,-63.35"/>
<polygon fill="#63b8ff" stroke="#63b8ff" points="140.6,-66.62 148,-59.04 137.49,-60.35 140.6,-66.62"/>
</a>
</g>
</g>
<!-- Node11 -->
<g id="Node000011" class="node">
<title>Node11</title>
<g id="a_Node000011"><a xlink:href="group__ds1307__base__driver.html#ga505bf845b186d301b39f8ad1bcf76672" target="_top" xlink:title="set the output mode">
<polygon fill="white" stroke="#666666" points="266.38,-20 138.62,-20 138.62,0 266.38,0 266.38,-20"/>
<text xml:space="preserve" text-anchor="middle" x="202.5" y="-6.5" font-family="Helvetica,sans-Serif" font-size="10.00">ds1307_set_output_mode</text>
</a>
</g>
</g>
<!-- Node1&#45;&gt;Node11 -->
<g id="edge10_Node000001_Node000011" class="edge">
<title>Node1&#45;&gt;Node11</title>
<g id="a_edge10_Node000001_Node000011"><a xlink:title=" ">
<path fill="none" stroke="#63b8ff" d="M52.03,-185.54C58.63,-156.15 81.43,-72.13 133.75,-29 135.05,-27.93 136.4,-26.92 137.8,-25.97"/>
<polygon fill="#63b8ff" stroke="#63b8ff" points="139.27,-29.16 146.28,-21.22 135.84,-23.05 139.27,-29.16"/>
</a>
</g>
</g>
</g>
</svg>
